<?xml version="1.0" standalone="no"?>
<!DOCTYPE svg PUBLIC "-//W3C//DTD SVG 20010904//EN"
 "http://www.w3.org/TR/2001/REC-SVG-20010904/DTD/svg10.dtd">
<svg version="1.0" xmlns="http://www.w3.org/2000/svg"
 width="512.000000pt" height="512.000000pt" viewBox="0 0 512.000000 512.000000"
 preserveAspectRatio="xMidYMid meet">
<metadata>
Created by potrace 1.16, written by Peter Selinger 2001-2019
</metadata>
<g transform="translate(0.000000,512.000000) scale(0.100000,-0.100000)"
fill="#000000" stroke="none">
<path d="M1445 5108 c-62 -34 -95 -87 -132 -217 -28 -100 -60 -154 -104 -177
-46 -23 -72 -11 -156 72 -41 42 -90 82 -108 90 -48 20 -104 17 -142 -6 -110
-67 -102 -306 17 -494 39 -62 119 -145 173 -181 l28 -18 -47 -48 -47 -48 -286
5 c-157 3 -353 2 -436 -3 l-150 -8 0 -32 c0 -31 10 -38 360 -261 l360 -229 -3
-184 c-4 -285 -25 -412 -104 -657 -45 -140 -49 -161 -48 -240 1 -48 -1 -160
-5 -248 -6 -132 -4 -181 10 -265 50 -301 208 -579 437 -770 l56 -47 -66 -7
c-36 -4 -71 -9 -79 -12 -22 -9 -14 -53 16 -92 l29 -37 -91 24 c-115 29 -265
39 -337 22 -83 -20 -150 -92 -150 -163 0 -12 9 -40 20 -62 11 -21 18 -40 17
-42 -2 -1 -48 -7 -103 -13 -144 -16 -219 -55 -250 -127 -18 -42 -18 -77 1
-113 9 -17 12 -30 7 -30 -23 0 -102 -84 -118 -125 -22 -58 -15 -131 16 -175
53 -75 130 -89 655 -124 768 -52 1125 -60 2535 -61 1344 0 1397 2 1514 45 110
42 180 131 180 230 0 92 -54 172 -146 215 l-46 21 33 27 c47 37 78 108 79 176
0 71 -23 115 -73 140 -54 28 -225 61 -312 61 l-73 0 64 43 c76 50 104 85 104
131 0 48 -21 82 -63 102 -30 14 -55 16 -166 11 -73 -4 -178 -17 -240 -30
l-110 -23 145 147 c134 136 151 150 230 186 47 22 99 52 117 67 47 39 73 101
73 172 l0 60 38 -4 c98 -9 185 50 198 134 9 61 -8 116 -52 163 l-34 38 62 13
c90 17 169 49 200 81 22 22 28 37 28 72 0 60 -30 95 -111 132 l-63 28 96 37
c168 65 219 108 225 192 5 65 -21 112 -72 134 -85 35 -421 5 -565 -51 -11 -4
-19 5 -29 30 -9 25 -25 42 -54 57 -38 20 -56 22 -177 21 -169 -1 -311 -20
-638 -83 -315 -60 -434 -78 -582 -86 -181 -10 -419 24 -518 74 -29 14 -38 27
-52 72 -9 30 -38 93 -64 139 -73 128 -76 141 -76 335 0 190 -9 261 -46 386
-43 140 -113 267 -201 361 l-43 46 99 82 c147 119 178 171 148 242 -23 56 -40
64 -150 69 -141 7 -142 9 -54 165 15 28 22 57 22 93 0 48 -4 57 -33 83 -26 23
-42 29 -78 29 -63 0 -98 -21 -179 -106 -71 -75 -104 -91 -133 -62 -16 16 -15
79 3 153 20 80 18 132 -4 181 -27 60 -63 84 -125 84 -28 0 -60 -6 -71 -12z
m220 -890 c203 -66 396 -256 476 -467 53 -141 61 -196 68 -433 l6 -227 73
-141 c102 -196 106 -261 23 -317 -19 -13 -43 -23 -53 -23 -18 0 -18 2 -4 22
20 28 20 62 2 77 -8 7 -65 25 -127 40 l-113 28 -27 56 c-31 66 -46 87 -65 87
-18 0 -46 -30 -41 -44 2 -6 8 -21 12 -34 l7 -23 -44 22 c-177 90 -327 243
-414 424 -60 124 -85 224 -91 373 -5 106 -4 122 10 122 9 0 25 12 37 27 23 29
21 64 -6 94 -8 8 -14 22 -14 30 1 33 70 192 114 263 54 87 46 85 171 44z
m-785 -218 c0 -6 -9 -28 -19 -48 -27 -53 -52 -143 -65 -234 l-11 -77 -177 112
c-97 62 -175 113 -174 115 2 1 27 -2 56 -8 69 -13 226 -13 251 0 21 12 25 45
7 57 -7 4 -62 8 -123 9 -117 2 -214 21 -300 60 l-50 22 303 1 c203 1 302 -2
302 -9z m2834 -2770 c19 -7 26 -17 26 -36 0 -21 -24 -50 -110 -133 -60 -59
-110 -114 -110 -123 0 -8 6 -21 14 -27 10 -9 41 2 137 48 211 101 393 151 621
172 114 11 130 10 153 -5 51 -33 36 -49 -157 -166 -154 -93 -172 -110 -146
-136 15 -15 20 -15 69 1 71 24 293 24 396 1 141 -31 163 -51 150 -132 -13 -79
-81 -132 -207 -160 -76 -18 -100 -35 -83 -62 8 -14 28 -17 109 -18 80 0 108
-4 144 -21 58 -28 73 -40 99 -83 38 -64 23 -129 -43 -187 -83 -74 -174 -82
-1021 -89 -965 -9 -2118 12 -2805 51 -569 33 -773 53 -825 83 -95 56 -52 176
84 234 73 31 77 47 21 83 -44 28 -51 55 -24 93 25 36 69 52 182 66 59 8 126
22 149 31 39 16 103 74 103 94 0 19 -30 33 -60 26 -85 -19 -78 94 8 126 73 28
275 4 439 -52 95 -32 123 -35 141 -17 18 18 17 21 -44 95 l-56 68 78 3 c154 6
313 -34 471 -119 148 -79 162 -47 48 106 -41 55 -74 103 -75 106 0 11 127 -13
220 -43 127 -41 252 -96 392 -173 64 -36 126 -65 138 -65 24 0 26 23 5 73 -26
62 15 111 74 92 12 -3 37 -31 56 -60 59 -93 100 -93 295 5 262 131 454 206
618 240 95 20 284 26 326 10z"/>
<path d="M3122 922 c-163 -65 -340 -288 -392 -496 -23 -90 -19 -116 15 -116
30 0 31 3 55 95 46 180 156 333 305 427 168 105 146 -47 -40 -267 -57 -68 -75
-96 -73 -115 7 -57 57 -30 140 75 60 76 172 161 283 216 95 46 195 73 195 52
0 -23 -173 -180 -265 -241 -117 -77 -128 -88 -114 -113 14 -27 29 -24 117 20
166 83 376 150 471 151 l24 0 -24 -18 c-45 -35 -121 -75 -192 -101 -76 -28
-95 -53 -62 -81 14 -11 29 -9 98 14 139 47 335 46 462 -4 l30 -12 -25 -20
c-45 -37 -144 -77 -225 -90 -79 -13 -80 -14 -80 -43 0 -27 3 -30 36 -33 55 -5
164 24 238 63 81 43 161 110 161 136 0 39 -166 97 -304 106 l-89 6 52 44 c55
48 64 76 29 94 -31 17 -227 5 -310 -19 l-67 -19 42 50 c23 27 52 61 64 76 29
34 29 55 -3 80 -61 48 -152 36 -299 -37 l-93 -47 5 56 c7 67 -6 96 -52 115
-43 18 -59 17 -113 -4z"/>
<path d="M1775 833 c-62 -15 -146 -139 -160 -237 l-7 -43 -44 47 c-123 132
-238 160 -312 76 -44 -51 -50 -108 -17 -188 6 -15 3 -15 -42 -2 -79 25 -208
29 -283 10 -118 -30 -140 -59 -89 -113 71 -73 196 -143 301 -168 73 -17 230
-20 259 -5 21 12 26 45 7 56 -7 4 -49 7 -93 5 -48 -1 -110 4 -150 14 -70 16
-178 68 -229 109 l-29 24 59 12 c101 21 234 -4 383 -71 74 -34 97 -36 110 -10
12 22 5 32 -63 86 -59 47 -86 89 -86 135 0 157 196 67 309 -143 31 -58 39 -67
61 -65 l25 3 0 121 c0 118 1 122 35 190 39 76 76 102 106 73 27 -28 38 -150
25 -272 -11 -93 -11 -111 1 -124 23 -23 45 -5 69 55 40 101 76 166 119 215 40
45 111 92 130 85 23 -9 -65 -251 -121 -329 -45 -64 7 -110 54 -47 82 109 174
390 145 442 -27 49 -173 -8 -260 -102 l-56 -61 -7 52 c-16 119 -76 187 -150
170z"/>
</g>
</svg>
